<svg width="1555" height="1555" viewBox="0 0 1555 1555" fill="none" xmlns="http://www.w3.org/2000/svg">
<path d="M1040.21 733.583C1090.57 691.053 1133.14 656.584 1134.81 656.584C1136.2 656.584 1139.54 659.641 1142.04 662.977C1144.27 666.312 1150.39 674.93 1155.67 682.158L1164.85 695.222L1157.62 706.342C1153.72 712.457 1143.43 724.132 1134.81 732.749C1126.46 741.366 1119.5 749.427 1119.5 750.54C1119.5 751.93 1128.41 758.879 1139.26 766.385C1175.15 790.847 1204.09 830.876 1217.72 874.796C1238.86 942.623 1233.86 1038.25 1206.03 1099.4C1173.48 1171.12 1107.26 1223.66 1024.35 1243.12C980.109 1253.4 948.112 1254.79 750.847 1253.68C545.513 1252.57 553.025 1253.12 514.073 1236.72C484.024 1223.94 452.862 1196.42 435.333 1167.51C421.422 1144.16 412.241 1107.74 408.624 1062.15L406.954 1040.75L427.264 1026.02C458.426 1003.5 492.37 978.204 553.025 933.449C583.35 910.935 609.78 891.755 612.009 890.919C615.348 889.807 615.905 903.15 615.905 975.98V1062.43H783.679C971.206 1062.43 968.98 1062.71 993.464 1043.53C1017.67 1024.07 1030.47 987.933 1026.57 949.294C1022.68 912.879 1007.93 890.363 978.439 875.63C962.024 867.569 957.016 866.457 931.975 865.623C900.813 864.789 891.353 863.399 891.353 859.785C891.355 858.393 904.153 846.997 920.011 833.933C934.309 821.944 980.938 783.037 1027.65 744.06L1040.21 733.583Z" fill="#05DEDE"/>
<path d="M1040.21 733.583C1090.57 691.053 1133.14 656.584 1134.81 656.584C1136.2 656.584 1139.54 659.641 1142.04 662.977C1144.27 666.312 1150.39 674.93 1155.67 682.158L1164.85 695.222L1157.62 706.342C1153.72 712.457 1143.43 724.132 1134.81 732.749C1126.46 741.366 1119.5 749.427 1119.5 750.54C1119.5 751.93 1128.41 758.879 1139.26 766.385C1175.15 790.847 1204.09 830.876 1217.72 874.796C1238.86 942.623 1233.86 1038.25 1206.03 1099.4C1173.48 1171.12 1107.26 1223.66 1024.35 1243.12C980.109 1253.4 948.112 1254.79 750.847 1253.68C545.513 1252.57 553.025 1253.12 514.073 1236.72C484.024 1223.94 452.862 1196.42 435.333 1167.51C421.422 1144.16 412.241 1107.74 408.624 1062.15L406.954 1040.75L427.264 1026.02C458.426 1003.5 492.37 978.204 553.025 933.449C583.35 910.935 609.78 891.755 612.009 890.919C615.348 889.807 615.905 903.15 615.905 975.98V1062.43H783.679C971.206 1062.43 968.98 1062.71 993.464 1043.53C1017.67 1024.07 1030.47 987.933 1026.57 949.294C1022.68 912.879 1007.93 890.363 978.439 875.63C962.024 867.569 957.016 866.457 931.975 865.623C900.813 864.789 891.353 863.399 891.353 859.785C891.355 858.393 904.153 846.997 920.011 833.933C934.309 821.944 980.938 783.037 1027.65 744.06L1040.21 733.583Z" fill="url(#paint0_linear_3_28)" fill-opacity="0.2"/>
<path d="M1238.59 487.295C1241.09 487.017 1241.65 488.963 1240.25 493.132C1239.42 496.746 1236.64 502.862 1234.69 507.031C1232.46 511.201 1218.27 543.446 1202.69 579.027C1187.39 614.608 1174.04 644.907 1173.2 646.298C1172.37 647.688 1166.8 640.182 1160.68 629.897C1154.56 619.334 1147.88 607.937 1145.66 604.323L1141.48 597.93L1132.3 605.713C1123.4 613.496 1028.52 692.998 953.955 755.543C932.531 773.612 904.431 797.518 891.632 808.637C871.043 826.428 867.704 828.651 863.809 825.316C854.627 817.255 800.094 773.89 778.391 757.212C766.149 747.76 754.464 739.977 752.516 739.977C750.568 739.978 734.43 750.818 716.346 764.16C698.261 777.781 655.414 809.193 621.192 834.489C586.969 859.785 547.182 889.251 532.436 900.092C309.853 1064.65 309.851 1064.65 315.416 1058.82C317.641 1056.59 346.578 1032.41 379.409 1005.17C412.24 977.648 469.834 929.836 507.395 898.424C544.956 867.013 608.115 814.475 647.902 781.674C687.689 748.872 726.919 716.071 735.266 708.565C743.613 701.338 751.125 695.5 752.238 695.5C753.351 695.5 778.949 714.125 809.554 737.197C839.881 759.991 866.591 778.894 868.539 778.894C870.487 778.893 889.685 763.605 911.664 744.703C933.366 726.078 971.205 693.833 995.69 673.54C1020.17 653.248 1050.78 627.396 1063.86 616.555C1076.93 605.436 1092.79 592.371 1099.47 587.089C1105.87 582.085 1111.16 576.248 1111.16 574.58C1111.16 572.912 1102.53 566.519 1091.68 560.681C1081.11 554.844 1072.76 549.285 1073.59 548.45C1075.82 546.226 1234.41 487.573 1238.59 487.295Z" fill="#05DEDE"/>
<path d="M1238.59 487.295C1241.09 487.017 1241.65 488.963 1240.25 493.132C1239.42 496.746 1236.64 502.862 1234.69 507.031C1232.46 511.201 1218.27 543.446 1202.69 579.027C1187.39 614.608 1174.04 644.907 1173.2 646.298C1172.37 647.688 1166.8 640.182 1160.68 629.897C1154.56 619.334 1147.88 607.937 1145.66 604.323L1141.48 597.93L1132.3 605.713C1123.4 613.496 1028.52 692.998 953.955 755.543C932.531 773.612 904.431 797.518 891.632 808.637C871.043 826.428 867.704 828.651 863.809 825.316C854.627 817.255 800.094 773.89 778.391 757.212C766.149 747.76 754.464 739.977 752.516 739.977C750.568 739.978 734.43 750.818 716.346 764.16C698.261 777.781 655.414 809.193 621.192 834.489C586.969 859.785 547.182 889.251 532.436 900.092C309.853 1064.65 309.851 1064.65 315.416 1058.82C317.641 1056.59 346.578 1032.41 379.409 1005.17C412.24 977.648 469.834 929.836 507.395 898.424C544.956 867.013 608.115 814.475 647.902 781.674C687.689 748.872 726.919 716.071 735.266 708.565C743.613 701.338 751.125 695.5 752.238 695.5C753.351 695.5 778.949 714.125 809.554 737.197C839.881 759.991 866.591 778.894 868.539 778.894C870.487 778.893 889.685 763.605 911.664 744.703C933.366 726.078 971.205 693.833 995.69 673.54C1020.17 653.248 1050.78 627.396 1063.86 616.555C1076.93 605.436 1092.79 592.371 1099.47 587.089C1105.87 582.085 1111.16 576.248 1111.16 574.58C1111.16 572.912 1102.53 566.519 1091.68 560.681C1081.11 554.844 1072.76 549.285 1073.59 548.45C1075.82 546.226 1234.41 487.573 1238.59 487.295Z" fill="url(#paint1_linear_3_28)" fill-opacity="0.2"/>
<path d="M763.089 301.049C914.724 300.771 949.782 301.605 974.266 305.219C1055.51 317.172 1117 356.645 1153.45 420.024C1163.46 437.537 1175.71 470.894 1172.92 473.674C1171.81 474.508 1137.31 488.129 1095.85 503.696C1054.68 518.984 1019.06 533.439 1016.84 535.663C1010.99 541.501 1014.61 546.782 1033.81 560.959C1043.55 567.908 1051.61 574.579 1052.17 575.969C1052.45 577.081 1025.74 600.71 992.352 628.23C958.964 655.75 920.011 688.273 905.822 700.226C891.354 712.179 876.885 724.132 873.268 727.19L866.87 732.471L833.76 707.453C815.676 693.833 795.087 678.544 787.574 673.54C780.34 668.537 775.053 663.533 775.888 661.865C777.002 660.475 808.72 659.363 852.123 659.363C940.6 659.363 948.947 657.973 968.98 637.681C984.839 621.558 991.516 603.212 991.516 574.302C991.516 536.219 975.935 510.923 945.33 499.248C932.531 494.245 921.957 493.967 774.496 493.967H617.297L616.462 576.525L615.905 659.363H672.942C706.052 659.363 729.98 660.475 729.98 661.865C729.979 663.256 711.616 679.656 689.08 698.003C666.265 716.349 610.618 761.659 564.711 798.908C420.869 915.934 411.406 923.442 409.458 923.443C406.119 923.443 406.676 483.407 410.292 456.718C420.865 371.656 477.903 314.949 563.32 303.829C573.059 302.439 662.927 301.327 763.089 301.049Z" fill="#05DEDE"/>
<path d="M763.089 301.049C914.724 300.771 949.782 301.605 974.266 305.219C1055.51 317.172 1117 356.645 1153.45 420.024C1163.46 437.537 1175.71 470.894 1172.92 473.674C1171.81 474.508 1137.31 488.129 1095.85 503.696C1054.68 518.984 1019.06 533.439 1016.84 535.663C1010.99 541.501 1014.61 546.782 1033.81 560.959C1043.55 567.908 1051.61 574.579 1052.17 575.969C1052.45 577.081 1025.74 600.71 992.352 628.23C958.964 655.75 920.011 688.273 905.822 700.226C891.354 712.179 876.885 724.132 873.268 727.19L866.87 732.471L833.76 707.453C815.676 693.833 795.087 678.544 787.574 673.54C780.34 668.537 775.053 663.533 775.888 661.865C777.002 660.475 808.72 659.363 852.123 659.363C940.6 659.363 948.947 657.973 968.98 637.681C984.839 621.558 991.516 603.212 991.516 574.302C991.516 536.219 975.935 510.923 945.33 499.248C932.531 494.245 921.957 493.967 774.496 493.967H617.297L616.462 576.525L615.905 659.363H672.942C706.052 659.363 729.98 660.475 729.98 661.865C729.979 663.256 711.616 679.656 689.08 698.003C666.265 716.349 610.618 761.659 564.711 798.908C420.869 915.934 411.406 923.442 409.458 923.443C406.119 923.443 406.676 483.407 410.292 456.718C420.865 371.656 477.903 314.949 563.32 303.829C573.059 302.439 662.927 301.327 763.089 301.049Z" fill="url(#paint2_linear_3_28)" fill-opacity="0.2"/>
<path d="M735.544 797.24C742.5 791.68 749.734 787.233 751.682 787.233C753.63 787.233 770.602 799.464 789.243 814.196C807.884 828.929 828.752 845.33 835.151 850.612C841.829 855.893 846.002 861.175 844.611 862.009C841.263 863.955 655.135 863.677 653.188 861.731C652.631 860.897 667.935 848.388 687.411 833.933C707.165 819.2 728.589 802.799 735.544 797.24Z" fill="#05DEDE"/>
<path d="M735.544 797.24C742.5 791.68 749.734 787.233 751.682 787.233C753.63 787.233 770.602 799.464 789.243 814.196C807.884 828.929 828.752 845.33 835.151 850.612C841.829 855.893 846.002 861.175 844.611 862.009C841.263 863.955 655.135 863.677 653.188 861.731C652.631 860.897 667.935 848.388 687.411 833.933C707.165 819.2 728.589 802.799 735.544 797.24Z" fill="url(#paint3_linear_3_28)" fill-opacity="0.2"/>
<defs>
<linearGradient id="paint0_linear_3_28" x1="777.5" y1="301" x2="777.5" y2="1254" gradientUnits="userSpaceOnUse">
<stop stop-opacity="0"/>
<stop offset="1"/>
</linearGradient>
<linearGradient id="paint1_linear_3_28" x1="777.5" y1="301" x2="777.5" y2="1254" gradientUnits="userSpaceOnUse">
<stop stop-opacity="0"/>
<stop offset="1"/>
</linearGradient>
<linearGradient id="paint2_linear_3_28" x1="777.5" y1="301" x2="777.5" y2="1254" gradientUnits="userSpaceOnUse">
<stop stop-opacity="0"/>
<stop offset="1"/>
</linearGradient>
<linearGradient id="paint3_linear_3_28" x1="777.5" y1="301" x2="777.5" y2="1254" gradientUnits="userSpaceOnUse">
<stop stop-opacity="0"/>
<stop offset="1"/>
</linearGradient>
</defs>
</svg>
