<svg width="3890" height="1100" viewBox="0 0 3890 1100" fill="none" xmlns="http://www.w3.org/2000/svg">
<path d="M733.024 507.981C781.29 467.181 822.091 434.115 823.691 434.115C825.024 434.115 828.224 437.048 830.624 440.247C832.758 443.448 838.624 451.715 843.691 458.648L852.491 471.181L845.557 481.848C841.823 487.715 831.957 498.915 823.691 507.181C815.691 515.447 809.024 523.18 809.024 524.247C809.024 525.581 817.557 532.248 827.957 539.448C862.357 562.914 890.091 601.314 903.158 643.448C923.424 708.514 918.624 800.248 891.957 858.914C860.757 927.714 797.29 978.114 717.824 996.781C675.424 1006.65 644.757 1007.98 455.691 1006.91C258.891 1005.85 266.09 1006.38 228.757 990.648C199.957 978.381 170.09 951.981 153.29 924.247C139.957 901.847 131.157 866.914 127.691 823.181L126.09 802.648L145.557 788.514C175.424 766.914 207.957 742.647 266.09 699.714C295.155 678.116 320.487 659.717 322.623 658.914C325.823 657.848 326.357 670.648 326.357 740.514V823.448H487.158C666.89 823.448 664.757 823.714 688.224 805.314C711.424 786.647 723.691 751.981 719.957 714.914C716.224 679.981 702.09 658.381 673.824 644.247C658.09 636.514 653.29 635.448 629.29 634.648C599.424 633.848 590.357 632.514 590.357 629.047C590.359 627.712 602.625 616.78 617.824 604.247C631.527 592.746 676.218 555.422 720.989 518.031L733.024 507.981Z" fill="#05DEDE"/>
<path d="M733.024 507.981C781.29 467.181 822.091 434.115 823.691 434.115C825.024 434.115 828.224 437.048 830.624 440.247C832.758 443.448 838.624 451.715 843.691 458.648L852.491 471.181L845.557 481.848C841.823 487.715 831.957 498.915 823.691 507.181C815.691 515.447 809.024 523.18 809.024 524.247C809.024 525.581 817.557 532.248 827.957 539.448C862.357 562.914 890.091 601.314 903.158 643.448C923.424 708.514 918.624 800.248 891.957 858.914C860.757 927.714 797.29 978.114 717.824 996.781C675.424 1006.65 644.757 1007.98 455.691 1006.91C258.891 1005.85 266.09 1006.38 228.757 990.648C199.957 978.381 170.09 951.981 153.29 924.247C139.957 901.847 131.157 866.914 127.691 823.181L126.09 802.648L145.557 788.514C175.424 766.914 207.957 742.647 266.09 699.714C295.155 678.116 320.487 659.717 322.623 658.914C325.823 657.848 326.357 670.648 326.357 740.514V823.448H487.158C666.89 823.448 664.757 823.714 688.224 805.314C711.424 786.647 723.691 751.981 719.957 714.914C716.224 679.981 702.09 658.381 673.824 644.247C658.09 636.514 653.29 635.448 629.29 634.648C599.424 633.848 590.357 632.514 590.357 629.047C590.359 627.712 602.625 616.78 617.824 604.247C631.527 592.746 676.218 555.422 720.989 518.031L733.024 507.981Z" fill="url(#paint0_linear_3_32)" fill-opacity="0.2"/>
<path d="M923.158 271.714C925.557 271.448 926.09 273.314 924.757 277.314C923.957 280.781 921.291 286.648 919.424 290.648C917.291 294.648 903.69 325.581 888.757 359.714C874.091 393.847 861.291 422.913 860.491 424.247C859.69 425.581 854.357 418.381 848.491 408.514C842.624 398.381 836.223 387.448 834.09 383.981L830.09 377.848L821.29 385.314C812.757 392.781 721.823 469.047 650.357 529.047C629.824 546.38 602.891 569.314 590.624 579.981C570.891 597.047 567.691 599.181 563.957 595.981C555.157 588.248 502.89 546.648 482.09 530.648C470.357 521.581 459.157 514.115 457.29 514.115C455.423 514.115 439.956 524.514 422.623 537.314C405.29 550.38 364.224 580.514 331.424 604.781C298.624 629.047 260.49 657.314 246.357 667.714C33.0256 825.579 33.0235 825.581 38.3567 819.981C40.4901 817.848 68.224 794.647 99.6907 768.514C131.157 742.114 186.357 696.248 222.357 666.115C258.357 635.981 318.89 585.581 357.024 554.115C395.157 522.648 432.757 491.181 440.757 483.981C448.757 477.048 455.957 471.448 457.024 471.448C458.09 471.448 482.624 489.314 511.957 511.448C541.024 533.314 566.624 551.448 568.491 551.448C570.358 551.447 588.758 536.781 609.824 518.648C630.623 500.781 666.89 469.848 690.357 450.381C713.823 430.915 743.157 406.114 755.691 395.714C768.224 385.048 783.423 372.514 789.824 367.448C795.957 362.648 801.023 357.048 801.024 355.448C801.024 353.848 792.757 347.715 782.357 342.115C772.225 336.515 764.226 331.182 765.024 330.381C767.157 328.248 919.158 271.981 923.158 271.714Z" fill="#05DEDE"/>
<path d="M923.158 271.714C925.557 271.448 926.09 273.314 924.757 277.314C923.957 280.781 921.291 286.648 919.424 290.648C917.291 294.648 903.69 325.581 888.757 359.714C874.091 393.847 861.291 422.913 860.491 424.247C859.69 425.581 854.357 418.381 848.491 408.514C842.624 398.381 836.223 387.448 834.09 383.981L830.09 377.848L821.29 385.314C812.757 392.781 721.823 469.047 650.357 529.047C629.824 546.38 602.891 569.314 590.624 579.981C570.891 597.047 567.691 599.181 563.957 595.981C555.157 588.248 502.89 546.648 482.09 530.648C470.357 521.581 459.157 514.115 457.29 514.115C455.423 514.115 439.956 524.514 422.623 537.314C405.29 550.38 364.224 580.514 331.424 604.781C298.624 629.047 260.49 657.314 246.357 667.714C33.0256 825.579 33.0235 825.581 38.3567 819.981C40.4901 817.848 68.224 794.647 99.6907 768.514C131.157 742.114 186.357 696.248 222.357 666.115C258.357 635.981 318.89 585.581 357.024 554.115C395.157 522.648 432.757 491.181 440.757 483.981C448.757 477.048 455.957 471.448 457.024 471.448C458.09 471.448 482.624 489.314 511.957 511.448C541.024 533.314 566.624 551.448 568.491 551.448C570.358 551.447 588.758 536.781 609.824 518.648C630.623 500.781 666.89 469.848 690.357 450.381C713.823 430.915 743.157 406.114 755.691 395.714C768.224 385.048 783.423 372.514 789.824 367.448C795.957 362.648 801.023 357.048 801.024 355.448C801.024 353.848 792.757 347.715 782.357 342.115C772.225 336.515 764.226 331.182 765.024 330.381C767.157 328.248 919.158 271.981 923.158 271.714Z" fill="url(#paint1_linear_3_32)" fill-opacity="0.2"/>
<path d="M467.424 93.0472C612.756 92.7806 646.357 93.5806 669.824 97.0472C747.69 108.514 806.624 146.381 841.557 207.181C851.157 223.981 862.891 255.981 860.224 258.648C859.157 259.448 826.09 272.514 786.357 287.448C746.891 302.114 712.758 315.981 710.624 318.115C705.024 323.715 708.491 328.781 726.891 342.381C736.224 349.047 743.957 355.447 744.491 356.781C744.757 357.847 719.158 380.514 687.158 406.914C655.158 433.314 617.824 464.514 604.224 475.981C590.357 487.448 576.49 498.915 573.024 501.848L566.891 506.914L535.158 482.914C517.825 469.848 498.091 455.182 490.891 450.381C483.958 445.581 478.891 440.781 479.691 439.181C480.758 437.848 511.158 436.781 552.757 436.781C637.557 436.781 645.557 435.448 664.757 415.981C679.957 400.514 686.357 382.914 686.357 355.181C686.357 318.648 671.424 294.381 642.09 283.181C629.824 278.381 619.689 278.115 478.357 278.115H327.691L326.891 357.314L326.357 436.781H381.024C412.757 436.781 435.691 437.848 435.691 439.181C435.69 440.515 418.09 456.249 396.491 473.848C374.624 491.448 321.29 534.915 277.29 570.648C139.427 682.912 130.357 690.114 128.491 690.115C125.291 690.115 125.824 267.985 129.29 242.381C139.424 160.781 194.091 106.381 275.957 95.7142C285.292 94.3809 371.425 93.3139 467.424 93.0472Z" fill="#05DEDE"/>
<path d="M467.424 93.0472C612.756 92.7806 646.357 93.5806 669.824 97.0472C747.69 108.514 806.624 146.381 841.557 207.181C851.157 223.981 862.891 255.981 860.224 258.648C859.157 259.448 826.09 272.514 786.357 287.448C746.891 302.114 712.758 315.981 710.624 318.115C705.024 323.715 708.491 328.781 726.891 342.381C736.224 349.047 743.957 355.447 744.491 356.781C744.757 357.847 719.158 380.514 687.158 406.914C655.158 433.314 617.824 464.514 604.224 475.981C590.357 487.448 576.49 498.915 573.024 501.848L566.891 506.914L535.158 482.914C517.825 469.848 498.091 455.182 490.891 450.381C483.958 445.581 478.891 440.781 479.691 439.181C480.758 437.848 511.158 436.781 552.757 436.781C637.557 436.781 645.557 435.448 664.757 415.981C679.957 400.514 686.357 382.914 686.357 355.181C686.357 318.648 671.424 294.381 642.09 283.181C629.824 278.381 619.689 278.115 478.357 278.115H327.691L326.891 357.314L326.357 436.781H381.024C412.757 436.781 435.691 437.848 435.691 439.181C435.69 440.515 418.09 456.249 396.491 473.848C374.624 491.448 321.29 534.915 277.29 570.648C139.427 682.912 130.357 690.114 128.491 690.115C125.291 690.115 125.824 267.985 129.29 242.381C139.424 160.781 194.091 106.381 275.957 95.7142C285.292 94.3809 371.425 93.3139 467.424 93.0472Z" fill="url(#paint2_linear_3_32)" fill-opacity="0.2"/>
<path d="M441.024 569.047C447.69 563.714 454.624 559.448 456.491 559.448C458.357 559.448 474.624 571.181 492.491 585.314C510.357 599.447 530.357 615.181 536.491 620.247C542.891 625.314 546.89 630.381 545.557 631.181C542.348 633.048 363.957 632.781 362.09 630.914C361.557 630.114 376.224 618.114 394.891 604.247C413.824 590.114 434.357 574.38 441.024 569.047Z" fill="#05DEDE"/>
<path d="M441.024 569.047C447.69 563.714 454.624 559.448 456.491 559.448C458.357 559.448 474.624 571.181 492.491 585.314C510.357 599.447 530.357 615.181 536.491 620.247C542.891 625.314 546.89 630.381 545.557 631.181C542.348 633.048 363.957 632.781 362.09 630.914C361.557 630.114 376.224 618.114 394.891 604.247C413.824 590.114 434.357 574.38 441.024 569.047Z" fill="url(#paint3_linear_3_32)" fill-opacity="0.2"/>
<path d="M1121.2 716V383H1258C1279.3 383 1297.45 386.9 1312.45 394.7C1327.75 402.2 1339.3 412.25 1347.1 424.85C1355.2 437.45 1359.25 451.25 1359.25 466.25C1359.25 482.15 1356.25 495.2 1350.25 505.4C1344.55 515.3 1337.95 522.95 1330.45 528.35C1322.95 533.75 1316.5 537.5 1311.1 539.6V542.3C1318.6 544.4 1327.15 548.45 1336.75 554.45C1346.35 560.15 1354.6 568.55 1361.5 579.65C1368.7 590.45 1372.3 604.55 1372.3 621.95C1372.3 637.55 1368.55 652.55 1361.05 666.95C1353.55 681.35 1341.55 693.2 1325.05 702.5C1308.85 711.5 1287.55 716 1261.15 716H1121.2ZM1253.05 428H1173.85V524.3H1253.05C1272.25 524.3 1286.2 519.35 1294.9 509.45C1303.6 499.55 1307.95 488.45 1307.95 476.15C1307.95 463.85 1303.6 452.75 1294.9 442.85C1286.2 432.95 1272.25 428 1253.05 428ZM1257.1 565.7H1173.85V671H1257.1C1271.8 671 1283.8 668.6 1293.1 663.8C1302.4 658.7 1309.15 652.1 1313.35 644C1317.55 635.9 1319.65 627.35 1319.65 618.35C1319.65 609.35 1317.55 600.95 1313.35 593.15C1309.15 585.05 1302.4 578.45 1293.1 573.35C1283.8 568.25 1271.8 565.7 1257.1 565.7ZM1497.2 716V383H1714.55V428.9H1549.85V523.85H1693.85V569.3H1549.85V670.1H1716.8V716H1497.2ZM1935.48 716V428.9H1831.98V383H2091.18V428.9H1987.68V716H1935.48ZM2917.28 720.5C2890.58 720.5 2867.03 715.7 2846.63 706.1C2826.23 696.2 2809.13 683.15 2795.33 666.95C2781.53 650.45 2771.18 632 2764.28 611.6C2757.38 591.2 2753.93 570.35 2753.93 549.05C2753.93 527.75 2757.38 507.05 2764.28 486.95C2771.18 466.55 2781.53 448.25 2795.33 432.05C2809.13 415.85 2826.23 402.95 2846.63 393.35C2867.03 383.45 2890.58 378.5 2917.28 378.5C2944.28 378.5 2967.98 383.45 2988.38 393.35C3008.78 402.95 3025.88 415.85 3039.68 432.05C3053.48 448.25 3063.83 466.55 3070.73 486.95C3077.63 507.05 3081.08 527.75 3081.08 549.05C3081.08 570.35 3077.63 591.2 3070.73 611.6C3063.83 632 3053.48 650.45 3039.68 666.95C3025.88 683.15 3008.78 696.2 2988.38 706.1C2967.98 715.7 2944.28 720.5 2917.28 720.5ZM2917.28 672.35C2941.28 672.35 2961.38 666.5 2977.58 654.8C2993.78 642.8 3006.08 627.5 3014.48 608.9C3022.88 590 3027.08 570.05 3027.08 549.05C3027.08 533.45 3024.68 518.45 3019.88 504.05C3015.08 489.35 3008.03 476.15 2998.73 464.45C2989.73 452.75 2978.33 443.6 2964.53 437C2951.03 430.1 2935.28 426.65 2917.28 426.65C2899.58 426.65 2883.83 430.1 2870.03 437C2856.53 443.6 2845.13 452.75 2835.83 464.45C2826.83 476.15 2819.93 489.35 2815.13 504.05C2810.33 518.45 2807.93 533.45 2807.93 549.05C2807.93 570.05 2812.13 590 2820.53 608.9C2828.93 627.5 2841.23 642.8 2857.43 654.8C2873.63 666.5 2893.58 672.35 2917.28 672.35ZM3205.35 716V383H3253.05L3416.4 622.4V383H3469.05V716H3420.9L3257.55 478.85V716H3205.35ZM3605.08 716V383H3822.43V428.9H3657.73V523.85H3801.73V569.3H3657.73V670.1H3824.68V716H3605.08Z" fill="white"/>
<path d="M2157.4 716L2273.5 383H2341L2457.55 716H2402.2L2376.55 641.3H2238.4L2212.75 716H2157.4ZM2254.15 594.5H2360.8L2307.7 439.25L2254.15 594.5ZM2577.28 716V383H2629.93V716H2577.28Z" fill="#05DEDE"/>
<defs>
<linearGradient id="paint0_linear_3_32" x1="481.236" y1="93" x2="481.236" y2="1007.22" gradientUnits="userSpaceOnUse">
<stop stop-opacity="0"/>
<stop offset="1"/>
</linearGradient>
<linearGradient id="paint1_linear_3_32" x1="481.236" y1="93" x2="481.236" y2="1007.22" gradientUnits="userSpaceOnUse">
<stop stop-opacity="0"/>
<stop offset="1"/>
</linearGradient>
<linearGradient id="paint2_linear_3_32" x1="481.236" y1="93" x2="481.236" y2="1007.22" gradientUnits="userSpaceOnUse">
<stop stop-opacity="0"/>
<stop offset="1"/>
</linearGradient>
<linearGradient id="paint3_linear_3_32" x1="481.236" y1="93" x2="481.236" y2="1007.22" gradientUnits="userSpaceOnUse">
<stop stop-opacity="0"/>
<stop offset="1"/>
</linearGradient>
</defs>
</svg>
