<svg width="1555" height="1555" viewBox="0 0 1555 1555" fill="none" xmlns="http://www.w3.org/2000/svg">
<path d="M942.142 596.834C978.974 565.684 1010.11 540.438 1011.33 540.438C1012.35 540.438 1014.79 542.677 1016.62 545.12C1018.25 547.564 1022.73 553.875 1026.59 559.169L1033.31 568.738L1028.02 576.882C1025.17 581.361 1017.64 589.912 1011.33 596.224C1005.23 602.535 1000.14 608.439 1000.14 609.254C1000.14 610.272 1006.65 615.362 1014.59 620.859C1040.84 638.775 1062 668.094 1071.97 700.262C1087.44 749.94 1083.77 819.978 1063.43 864.769C1039.62 917.297 991.184 955.777 930.542 970.029C898.186 977.562 874.784 978.58 730.506 977.766C580.327 976.951 585.821 977.359 557.331 965.346C535.354 955.981 512.562 935.824 499.742 914.65C489.567 897.548 482.852 870.877 480.207 837.487L478.985 821.81L493.841 811.019C516.632 794.528 541.459 776 585.821 743.221C608 726.731 627.331 712.683 628.962 712.071C631.404 711.256 631.811 721.029 631.811 774.371V837.69H754.519C891.675 837.69 890.047 837.894 907.954 823.845C925.658 809.594 935.019 783.126 932.171 754.826C929.322 728.155 918.536 711.663 896.965 700.873C884.959 694.968 881.296 694.154 862.982 693.543C840.19 692.933 833.271 691.914 833.271 689.267C833.273 688.248 842.633 679.901 854.231 670.333C864.689 661.552 898.793 633.055 932.958 604.508L942.142 596.834Z" fill="#05DEDE"/>
<path d="M942.142 596.834C978.974 565.684 1010.11 540.438 1011.33 540.438C1012.35 540.438 1014.79 542.677 1016.62 545.12C1018.25 547.564 1022.73 553.875 1026.59 559.169L1033.31 568.738L1028.02 576.882C1025.17 581.361 1017.64 589.912 1011.33 596.224C1005.23 602.535 1000.14 608.439 1000.14 609.254C1000.14 610.272 1006.65 615.362 1014.59 620.859C1040.84 638.775 1062 668.094 1071.97 700.262C1087.44 749.94 1083.77 819.978 1063.43 864.769C1039.62 917.297 991.184 955.777 930.542 970.029C898.186 977.562 874.784 978.58 730.506 977.766C580.327 976.951 585.821 977.359 557.331 965.346C535.354 955.981 512.562 935.824 499.742 914.65C489.567 897.548 482.852 870.877 480.207 837.487L478.985 821.81L493.841 811.019C516.632 794.528 541.459 776 585.821 743.221C608 726.731 627.331 712.683 628.962 712.071C631.404 711.256 631.811 721.029 631.811 774.371V837.69H754.519C891.675 837.69 890.047 837.894 907.954 823.845C925.658 809.594 935.019 783.126 932.171 754.826C929.322 728.155 918.536 711.663 896.965 700.873C884.959 694.968 881.296 694.154 862.982 693.543C840.19 692.933 833.271 691.914 833.271 689.267C833.273 688.248 842.633 679.901 854.231 670.333C864.689 661.552 898.793 633.055 932.958 604.508L942.142 596.834Z" fill="url(#paint0_linear_3_47)" fill-opacity="0.2"/>
<path d="M1087.23 416.447C1089.07 416.243 1089.47 417.668 1088.45 420.722C1087.84 423.369 1085.81 427.848 1084.39 430.902C1082.76 433.956 1072.38 457.574 1060.98 483.634C1049.79 509.694 1040.02 531.886 1039.41 532.905C1038.8 533.922 1034.73 528.425 1030.26 520.892C1025.78 513.156 1020.89 504.808 1019.27 502.161L1016.21 497.479L1009.5 503.179C1002.99 508.88 933.595 567.109 879.058 612.918C863.389 626.152 842.836 643.662 833.475 651.806C818.417 664.836 815.974 666.465 813.126 664.021C806.41 658.117 766.525 626.356 750.652 614.14C741.698 607.218 733.152 601.517 731.727 601.517C730.302 601.518 718.499 609.457 705.272 619.23C692.045 629.206 660.707 652.213 635.678 670.74C610.648 689.267 581.547 710.849 570.762 718.789C407.967 839.318 407.966 839.319 412.035 835.044C413.663 833.415 434.827 815.702 458.84 795.749C482.852 775.593 524.975 740.575 552.447 717.568C579.919 694.562 626.113 656.082 655.213 632.057C684.313 608.032 713.006 584.008 719.11 578.51C725.215 573.217 730.709 568.942 731.524 568.941C732.338 568.941 751.059 582.582 773.444 599.481C795.625 616.176 815.16 630.021 816.585 630.021C818.01 630.02 832.051 618.823 848.126 604.978C863.999 591.337 891.674 567.72 909.582 552.857C927.49 537.995 949.875 519.06 959.439 511.12C969.003 502.976 980.602 493.407 985.486 489.538C990.166 485.874 994.033 481.598 994.033 480.376C994.033 479.155 987.724 474.472 979.788 470.197C972.056 465.922 965.952 461.85 966.561 461.238C968.189 459.61 1084.18 416.65 1087.23 416.447Z" fill="#05DEDE"/>
<path d="M1087.23 416.447C1089.07 416.243 1089.47 417.668 1088.45 420.722C1087.84 423.369 1085.81 427.848 1084.39 430.902C1082.76 433.956 1072.38 457.574 1060.98 483.634C1049.79 509.694 1040.02 531.886 1039.41 532.905C1038.8 533.922 1034.73 528.425 1030.26 520.892C1025.78 513.156 1020.89 504.808 1019.27 502.161L1016.21 497.479L1009.5 503.179C1002.99 508.88 933.595 567.109 879.058 612.918C863.389 626.152 842.836 643.662 833.475 651.806C818.417 664.836 815.974 666.465 813.126 664.021C806.41 658.117 766.525 626.356 750.652 614.14C741.698 607.218 733.152 601.517 731.727 601.517C730.302 601.518 718.499 609.457 705.272 619.23C692.045 629.206 660.707 652.213 635.678 670.74C610.648 689.267 581.547 710.849 570.762 718.789C407.967 839.318 407.966 839.319 412.035 835.044C413.663 833.415 434.827 815.702 458.84 795.749C482.852 775.593 524.975 740.575 552.447 717.568C579.919 694.562 626.113 656.082 655.213 632.057C684.313 608.032 713.006 584.008 719.11 578.51C725.215 573.217 730.709 568.942 731.524 568.941C732.338 568.941 751.059 582.582 773.444 599.481C795.625 616.176 815.16 630.021 816.585 630.021C818.01 630.02 832.051 618.823 848.126 604.978C863.999 591.337 891.674 567.72 909.582 552.857C927.49 537.995 949.875 519.06 959.439 511.12C969.003 502.976 980.602 493.407 985.486 489.538C990.166 485.874 994.033 481.598 994.033 480.376C994.033 479.155 987.724 474.472 979.788 470.197C972.056 465.922 965.952 461.85 966.561 461.238C968.189 459.61 1084.18 416.65 1087.23 416.447Z" fill="url(#paint1_linear_3_47)" fill-opacity="0.2"/>
<path d="M739.46 280.036C850.365 279.832 876.005 280.443 893.913 283.09C953.334 291.845 998.306 320.756 1024.96 367.176C1032.29 380.003 1041.24 404.435 1039.21 406.471C1038.39 407.082 1013.16 417.058 982.84 428.459C952.723 439.657 926.677 450.244 925.048 451.873C920.775 456.149 923.42 460.017 937.462 470.4C944.583 475.49 950.485 480.376 950.892 481.394C951.096 482.209 931.56 499.515 907.141 519.671C882.721 539.827 854.232 563.648 843.853 572.403C833.272 581.157 822.69 589.912 820.044 592.152L815.364 596.02L791.148 577.696C777.921 567.72 762.863 556.522 757.368 552.857C752.077 549.193 748.211 545.528 748.821 544.306C749.635 543.288 772.834 542.474 804.579 542.474C869.29 542.474 875.395 541.456 890.047 526.593C901.646 514.784 906.53 501.347 906.53 480.173C906.53 452.28 895.134 433.753 872.749 425.202C863.389 421.537 855.655 421.333 747.803 421.333H632.829L632.218 481.801L631.811 542.474H673.527C697.743 542.474 715.244 543.288 715.244 544.306C715.243 545.325 701.813 557.337 685.33 570.774C668.643 584.212 627.944 617.398 594.368 644.68C489.163 730.393 482.242 735.892 480.817 735.892C478.375 735.892 478.782 413.6 481.428 394.051C489.16 331.75 530.877 290.216 593.35 282.072C600.474 281.054 666.202 280.24 739.46 280.036Z" fill="#05DEDE"/>
<path d="M739.46 280.036C850.365 279.832 876.005 280.443 893.913 283.09C953.334 291.845 998.306 320.756 1024.96 367.176C1032.29 380.003 1041.24 404.435 1039.21 406.471C1038.39 407.082 1013.16 417.058 982.84 428.459C952.723 439.657 926.677 450.244 925.048 451.873C920.775 456.149 923.42 460.017 937.462 470.4C944.583 475.49 950.485 480.376 950.892 481.394C951.096 482.209 931.56 499.515 907.141 519.671C882.721 539.827 854.232 563.648 843.853 572.403C833.272 581.157 822.69 589.912 820.044 592.152L815.364 596.02L791.148 577.696C777.921 567.72 762.863 556.522 757.368 552.857C752.077 549.193 748.211 545.528 748.821 544.306C749.635 543.288 772.834 542.474 804.579 542.474C869.29 542.474 875.395 541.456 890.047 526.593C901.646 514.784 906.53 501.347 906.53 480.173C906.53 452.28 895.134 433.753 872.749 425.202C863.389 421.537 855.655 421.333 747.803 421.333H632.829L632.218 481.801L631.811 542.474H673.527C697.743 542.474 715.244 543.288 715.244 544.306C715.243 545.325 701.813 557.337 685.33 570.774C668.643 584.212 627.944 617.398 594.368 644.68C489.163 730.393 482.242 735.892 480.817 735.892C478.375 735.892 478.782 413.6 481.428 394.051C489.16 331.75 530.877 290.216 593.35 282.072C600.474 281.054 666.202 280.24 739.46 280.036Z" fill="url(#paint2_linear_3_47)" fill-opacity="0.2"/>
<path d="M719.314 643.458C724.401 639.386 729.692 636.129 731.117 636.129C732.541 636.129 744.955 645.087 758.589 655.877C772.223 666.668 787.485 678.68 792.165 682.549C797.049 686.417 800.102 690.286 799.084 690.897C796.636 692.322 660.503 692.118 659.079 690.693C658.672 690.082 669.865 680.92 684.11 670.333C698.558 659.542 714.227 647.53 719.314 643.458Z" fill="#05DEDE"/>
<path d="M719.314 643.458C724.401 639.386 729.692 636.129 731.117 636.129C732.541 636.129 744.955 645.087 758.589 655.877C772.223 666.668 787.485 678.68 792.165 682.549C797.049 686.417 800.102 690.286 799.084 690.897C796.636 692.322 660.503 692.118 659.079 690.693C658.672 690.082 669.865 680.92 684.11 670.333C698.558 659.542 714.227 647.53 719.314 643.458Z" fill="url(#paint3_linear_3_47)" fill-opacity="0.2"/>
<path d="M371.26 1210V1110.1H412.3C418.69 1110.1 424.135 1111.27 428.635 1113.61C433.225 1115.86 436.69 1118.87 439.03 1122.65C441.46 1126.43 442.675 1130.57 442.675 1135.07C442.675 1139.84 441.775 1143.76 439.975 1146.82C438.265 1149.79 436.285 1152.08 434.035 1153.7C431.785 1155.32 429.85 1156.45 428.23 1157.08V1157.89C430.48 1158.52 433.045 1159.73 435.925 1161.53C438.805 1163.24 441.28 1165.76 443.35 1169.09C445.51 1172.33 446.59 1176.56 446.59 1181.78C446.59 1186.46 445.465 1190.96 443.215 1195.28C440.965 1199.6 437.365 1203.16 432.415 1205.95C427.555 1208.65 421.165 1210 413.245 1210H371.26ZM410.815 1123.6H387.055V1152.49H410.815C416.575 1152.49 420.76 1151 423.37 1148.03C425.98 1145.06 427.285 1141.73 427.285 1138.04C427.285 1134.35 425.98 1131.02 423.37 1128.05C420.76 1125.08 416.575 1123.6 410.815 1123.6ZM412.03 1164.91H387.055V1196.5H412.03C416.44 1196.5 420.04 1195.78 422.83 1194.34C425.62 1192.81 427.645 1190.83 428.905 1188.4C430.165 1185.97 430.795 1183.4 430.795 1180.7C430.795 1178 430.165 1175.48 428.905 1173.14C427.645 1170.71 425.62 1168.73 422.83 1167.2C420.04 1165.67 416.44 1164.91 412.03 1164.91ZM484.059 1210V1110.1H549.264V1123.87H499.854V1152.35H543.054V1165.99H499.854V1196.23H549.939V1210H484.059ZM615.543 1210V1123.87H584.493V1110.1H662.253V1123.87H631.203V1210H615.543ZM910.085 1211.35C902.075 1211.35 895.01 1209.91 888.89 1207.03C882.77 1204.06 877.64 1200.14 873.5 1195.28C869.36 1190.33 866.255 1184.8 864.185 1178.68C862.115 1172.56 861.08 1166.3 861.08 1159.91C861.08 1153.52 862.115 1147.31 864.185 1141.28C866.255 1135.16 869.36 1129.67 873.5 1124.81C877.64 1119.95 882.77 1116.08 888.89 1113.2C895.01 1110.23 902.075 1108.75 910.085 1108.75C918.185 1108.75 925.295 1110.23 931.415 1113.2C937.535 1116.08 942.665 1119.95 946.805 1124.81C950.945 1129.67 954.05 1135.16 956.12 1141.28C958.19 1147.31 959.225 1153.52 959.225 1159.91C959.225 1166.3 958.19 1172.56 956.12 1178.68C954.05 1184.8 950.945 1190.33 946.805 1195.28C942.665 1200.14 937.535 1204.06 931.415 1207.03C925.295 1209.91 918.185 1211.35 910.085 1211.35ZM910.085 1196.9C917.285 1196.9 923.315 1195.15 928.175 1191.64C933.035 1188.04 936.725 1183.45 939.245 1177.87C941.765 1172.2 943.025 1166.21 943.025 1159.91C943.025 1155.23 942.305 1150.73 940.865 1146.41C939.425 1142 937.31 1138.04 934.52 1134.53C931.82 1131.02 928.4 1128.28 924.26 1126.3C920.21 1124.23 915.485 1123.19 910.085 1123.19C904.775 1123.19 900.05 1124.23 895.91 1126.3C891.86 1128.28 888.44 1131.02 885.65 1134.53C882.95 1138.04 880.88 1142 879.44 1146.41C878 1150.73 877.28 1155.23 877.28 1159.91C877.28 1166.21 878.54 1172.2 881.06 1177.87C883.58 1183.45 887.27 1188.04 892.13 1191.64C896.99 1195.15 902.975 1196.9 910.085 1196.9ZM996.505 1210V1110.1H1010.82L1059.82 1181.92V1110.1H1075.62V1210H1061.17L1012.17 1138.85V1210H996.505ZM1116.42 1210V1110.1H1181.63V1123.87H1132.22V1152.35H1175.42V1165.99H1132.22V1196.23H1182.3V1210H1116.42Z" fill="white"/>
<path d="M682.121 1210L716.951 1110.1H737.201L772.166 1210H755.561L747.866 1187.59H706.421L698.726 1210H682.121ZM711.146 1173.55H743.141L727.211 1126.97L711.146 1173.55ZM808.085 1210V1110.1H823.88V1210H808.085Z" fill="#05DEDE"/>
<defs>
<linearGradient id="paint0_linear_3_47" x1="750" y1="280" x2="750" y2="978" gradientUnits="userSpaceOnUse">
<stop stop-opacity="0"/>
<stop offset="1"/>
</linearGradient>
<linearGradient id="paint1_linear_3_47" x1="750" y1="280" x2="750" y2="978" gradientUnits="userSpaceOnUse">
<stop stop-opacity="0"/>
<stop offset="1"/>
</linearGradient>
<linearGradient id="paint2_linear_3_47" x1="750" y1="280" x2="750" y2="978" gradientUnits="userSpaceOnUse">
<stop stop-opacity="0"/>
<stop offset="1"/>
</linearGradient>
<linearGradient id="paint3_linear_3_47" x1="750" y1="280" x2="750" y2="978" gradientUnits="userSpaceOnUse">
<stop stop-opacity="0"/>
<stop offset="1"/>
</linearGradient>
</defs>
</svg>
